<svg class="svg-templates" aria-hidden="true" xmlns="http://www.w3.org/2000/svg"><symbol id="b-angle-rl" viewBox="0 0 46 46"><g stroke="#A21D21"><path d="M27 33l-8.398-9.331a1 1 0 010-1.338L27 13" stroke-width="3" stroke-linecap="square"/><rect x="45" y="45" width="44" height="44" rx="4" transform="rotate(180 45 45)" stroke-width="2"/></g></symbol><symbol id="b-angle-rr" viewBox="0 0 46 46"><g stroke="#A21D21"><path d="M19 13l8.398 9.331a1 1 0 010 1.338L19 33" stroke-width="3" stroke-linecap="square"/><rect x="1" y="1" width="44" height="44" rx="4" stroke-width="2"/></g></symbol><symbol id="b-angle-wl" viewBox="0 0 46 46"><path d="M27 33l-8.398-9.331a1 1 0 010-1.338L27 13" stroke="#fff" stroke-width="3" stroke-linecap="square"/><rect x="45" y="45" width="44" height="44" rx="4" transform="rotate(180 45 45)" stroke="#fff" stroke-width="2"/></symbol><symbol id="b-angle-wr" viewBox="0 0 47 47"><path d="M19.025 13.511l8.41 9.345a1 1 0 010 1.337l-8.41 9.345" stroke="#fff" stroke-width="3" stroke-linecap="square"/><rect x="1" y="1.494" width="44.061" height="44.061" rx="4" stroke="#fff" stroke-width="2"/></symbol><symbol id="play" viewBox="0 0 58 58"><circle cx="29" cy="29" r="29" fill="#A21D21" fill-opacity=".75"/><path d="M23 37.252V19.838a1 1 0 011.543-.84L38.64 28.12a1 1 0 01-.036 1.701l-14.097 8.293A1 1 0 0123 37.252z" fill="#fff"/></symbol></svg>