<svg width="24" height="24" viewBox="0 0 24 24" fill="none" xmlns="http://www.w3.org/2000/svg"><g clip-path="url(#clip0_10855_34106)"><path d="M18.25 3.75c1.367 0 2.5 1.133 2.5 2.5v12.5c0 1.406-1.133 2.5-2.5 2.5H5.75a2.468 2.468 0 01-2.5-2.5V6.25c0-1.367 1.094-2.5 2.5-2.5h12.5zm-1.758 7.031a1.06 1.06 0 000-1.523 1.061 1.061 0 00-1.523 0l-4.219 4.219-1.758-1.72a1.061 1.061 0 00-1.523 0c-.43.43-.43 1.095 0 1.524l2.5 2.5c.43.43 1.094.43 1.523 0l5-5z" fill="#7CAF41"/></g><defs><clipPath id="clip0_10855_34106"><path fill="#fff" d="M0 0h24v24H0z"/></clipPath></defs></svg>