<svg xmlns="http://www.w3.org/2000/svg" width="1080" height="720" viewBox="0 0 1080 720"><rect width="100%" height="100%" fill="#DDDDDD"/><path fill="#999999" d="M261.135 394.16h16.51v11.75h-50.8v-11.75h18.61v-53.53q0-3.17.19-6.54l-13.21 11.05q-1.14.89-2.25 1.11-1.12.22-2.1.03t-1.75-.66q-.76-.48-1.14-1.05l-4.95-6.8 28-23.81h12.89v80.2Zm94.93-34.16q0 12-2.57 20.86t-7.11 14.64q-4.54 5.77-10.73 8.6t-13.37 2.83q-7.17 0-13.3-2.83-6.13-2.83-10.64-8.6-4.51-5.78-7.05-14.64t-2.54-20.86q0-12.07 2.54-20.89 2.54-8.83 7.05-14.61 4.51-5.78 10.64-8.6 6.13-2.83 13.3-2.83 7.18 0 13.37 2.83 6.19 2.82 10.73 8.6 4.54 5.78 7.11 14.61 2.57 8.82 2.57 20.89Zm-16.19 0q0-9.97-1.46-16.51-1.46-6.54-3.9-10.41-2.45-3.88-5.62-5.43-3.18-1.56-6.61-1.56-3.36 0-6.51 1.56-3.14 1.55-5.55 5.43-2.42 3.87-3.84 10.41-1.43 6.54-1.43 16.51 0 9.97 1.43 16.51 1.42 6.54 3.84 10.41 2.41 3.88 5.55 5.43 3.15 1.56 6.51 1.56 3.43 0 6.61-1.56 3.17-1.55 5.62-5.43 2.44-3.87 3.9-10.41t1.46-16.51Zm56.2 34.67q3.87 0 6.79-1.11t4.92-3.08q2.01-1.97 3.02-4.7 1.02-2.73 1.02-5.91 0-7.55-4.19-11.43-4.19-3.87-11.56-3.87t-11.56 3.87q-4.19 3.88-4.19 11.43 0 3.18 1.02 5.91 1.01 2.73 3.01 4.7 2 1.97 4.92 3.08 2.93 1.11 6.8 1.11Zm0-69.79q-3.49 0-6.03 1.08t-4.23 2.89q-1.68 1.81-2.47 4.16-.8 2.35-.8 4.95 0 2.74.67 5.31.67 2.57 2.25 4.57 1.59 2 4.2 3.21 2.6 1.2 6.41 1.2t6.41-1.2q2.61-1.21 4.19-3.21 1.59-2 2.26-4.57.66-2.57.66-5.31 0-2.6-.82-4.95-.83-2.35-2.48-4.16t-4.19-2.89q-2.54-1.08-6.03-1.08Zm15.49 33.15q8.39 2.73 12.39 8.35 4 5.62 4 13.75 0 6.1-2.32 11.05-2.32 4.95-6.51 8.44-4.19 3.5-10.07 5.4-5.87 1.91-12.98 1.91t-12.99-1.91q-5.87-1.9-10.06-5.4-4.19-3.49-6.51-8.44-2.32-4.95-2.32-11.05 0-8.13 4-13.75 4-5.62 12.39-8.35-6.67-2.79-10.01-7.94-3.33-5.14-3.33-12.38 0-5.21 2.13-9.71 2.12-4.51 5.93-7.85 3.81-3.33 9.12-5.2 5.3-1.88 11.65-1.88 6.35 0 11.65 1.88 5.3 1.87 9.11 5.2 3.81 3.34 5.94 7.85 2.13 4.5 2.13 9.71 0 7.24-3.34 12.38-3.33 5.15-10 7.94Zm91.82 1.97q0 12-2.57 20.86t-7.11 14.64q-4.54 5.77-10.73 8.6t-13.37 2.83q-7.17 0-13.3-2.83-6.13-2.83-10.64-8.6-4.51-5.78-7.05-14.64t-2.54-20.86q0-12.07 2.54-20.89 2.54-8.83 7.05-14.61 4.51-5.78 10.64-8.6 6.13-2.83 13.3-2.83 7.18 0 13.37 2.83 6.19 2.82 10.73 8.6 4.54 5.78 7.11 14.61 2.57 8.82 2.57 20.89Zm-16.19 0q0-9.97-1.46-16.51-1.46-6.54-3.9-10.41-2.45-3.88-5.62-5.43-3.18-1.56-6.61-1.56-3.36 0-6.51 1.56-3.14 1.55-5.55 5.43-2.42 3.87-3.84 10.41-1.43 6.54-1.43 16.51 0 9.97 1.43 16.51 1.42 6.54 3.84 10.41 2.41 3.88 5.55 5.43 3.15 1.56 6.51 1.56 3.43 0 6.61-1.56 3.17-1.55 5.62-5.43 2.44-3.87 3.9-10.41t1.46-16.51Zm117.03 24.89-8.32 8.19-21.52-21.52-21.72 21.65-8.32-8.19 21.72-21.78-20.7-20.7 8.25-8.26 20.7 20.7 20.58-20.57 8.38 8.25-20.64 20.64 21.59 21.59Zm43.63-70.8h63.43v6.79q0 3.05-.63 4.92-.64 1.88-1.27 3.15l-34.8 71.63q-1.08 2.22-3.05 3.77-1.97 1.56-5.27 1.56h-11.36l35.49-70.17q1.21-2.16 2.38-3.97 1.18-1.81 2.64-3.46h-43.94q-1.46 0-2.54-1.08t-1.08-2.54v-10.6Zm106.49 77.21h23.55q2.54 0 4.04 1.43 1.49 1.43 1.49 3.78v9.4h-62.99v-5.21q0-1.58.66-3.33.67-1.75 2.13-3.14l27.88-27.94q3.49-3.56 6.25-6.8 2.76-3.24 4.61-6.41 1.84-3.18 2.82-6.45.99-3.27.99-6.89 0-3.3-.96-5.81-.95-2.51-2.7-4.22-1.74-1.71-4.19-2.57-2.44-.86-5.49-.86-2.79 0-5.17.79-2.39.8-4.23 2.23-1.84 1.43-3.11 3.33-1.27 1.91-1.9 4.19-1.08 2.92-2.8 3.88-1.71.95-4.95.44l-8.26-1.46q.96-6.6 3.69-11.59 2.73-4.98 6.82-8.32 4.1-3.33 9.4-5.01 5.3-1.69 11.4-1.69 6.35 0 11.62 1.88 5.27 1.87 9.02 5.3 3.74 3.43 5.84 8.25 2.1 4.83 2.1 10.74 0 5.08-1.5 9.39-1.49 4.32-4 8.26-2.51 3.93-5.87 7.62-3.37 3.68-7.05 7.49l-20.7 21.15q2.98-.89 5.94-1.37 2.95-.48 5.62-.48Zm105.41-31.3q0 12-2.58 20.86-2.57 8.86-7.11 14.64-4.54 5.77-10.73 8.6t-13.37 2.83q-7.17 0-13.3-2.83-6.13-2.83-10.64-8.6-4.5-5.78-7.04-14.64t-2.54-20.86q0-12.07 2.54-20.89 2.54-8.83 7.04-14.61 4.51-5.78 10.64-8.6 6.13-2.83 13.3-2.83 7.18 0 13.37 2.83 6.19 2.82 10.73 8.6 4.54 5.78 7.11 14.61 2.58 8.82 2.58 20.89Zm-16.2 0q0-9.97-1.46-16.51-1.46-6.54-3.9-10.41-2.45-3.88-5.62-5.43-3.18-1.56-6.61-1.56-3.36 0-6.5 1.56-3.15 1.55-5.56 5.43-2.41 3.87-3.84 10.41-1.43 6.54-1.43 16.51 0 9.97 1.43 16.51 1.43 6.54 3.84 10.41 2.41 3.88 5.56 5.43 3.14 1.56 6.5 1.56 3.43 0 6.61-1.56 3.17-1.55 5.62-5.43 2.44-3.87 3.9-10.41t1.46-16.51Z"/></svg>