<svg width="24" height="24" viewBox="0 0 24 24" fill="none" xmlns="http://www.w3.org/2000/svg">
<g clip-path="url(#clip0_10855_34106)">
<path d="M18.25 3.75C19.6172 3.75 20.75 4.88281 20.75 6.25V18.75C20.75 20.1562 19.6172 21.25 18.25 21.25H5.75C4.34375 21.25 3.25 20.1562 3.25 18.75V6.25C3.25 4.88281 4.34375 3.75 5.75 3.75H18.25ZM16.4922 10.7812C16.9219 10.3516 16.9219 9.6875 16.4922 9.25781C16.0625 8.82812 15.3984 8.82812 14.9688 9.25781L10.75 13.4766L8.99219 11.7578C8.5625 11.3281 7.89844 11.3281 7.46875 11.7578C7.03906 12.1875 7.03906 12.8516 7.46875 13.2812L9.96875 15.7812C10.3984 16.2109 11.0625 16.2109 11.4922 15.7812L16.4922 10.7812Z" fill="#7CAF41"/>
</g>
<defs>
<clipPath id="clip0_10855_34106">
<rect width="24" height="24" fill="white"/>
</clipPath>
</defs>
</svg>
