<svg width="22" height="22" viewBox="0 0 22 22" fill="none" xmlns="http://www.w3.org/2000/svg">
<path d="M17.6956 14.1921C18.9925 14.9678 20.1945 15.7436 21.2599 16.524C21.9454 17.0265 22.2025 17.9458 21.8273 18.71C21.063 20.2662 19.7406 21.3916 17.7234 21.8339C16.086 22.1952 14.3769 21.9497 12.8437 21.2666C10.3425 20.155 7.88987 18.4854 5.7013 16.297C3.51272 14.1087 1.84524 11.6587 0.731265 9.15537C0.0503751 7.62468 -0.195116 5.91337 0.166173 4.27615C0.610836 2.26148 1.73407 0.939208 3.29039 0.172706C4.05466 -0.20244 4.97409 0.0546048 5.47665 0.740057C6.25713 1.80529 7.03297 3.00714 7.80882 4.30394C8.21411 4.98476 8.12379 5.8601 7.57259 6.42745C7.08624 6.92765 6.57441 7.407 6.04174 7.8632C5.40022 8.41202 5.30527 9.36147 5.7893 10.0516C6.6022 11.214 7.54248 12.3372 8.60319 13.3978C9.66389 14.4584 10.7871 15.3985 11.9497 16.2114C12.6399 16.6953 13.5917 16.6004 14.1383 15.9589C14.5946 15.4263 15.0716 14.9146 15.5742 14.4283C16.1416 13.8771 17.0194 13.7868 17.6979 14.1921H17.6956Z" fill="white"/>
</svg>
