<svg width="41" height="41" viewBox="0 0 41 41" fill="none" xmlns="http://www.w3.org/2000/svg">
<g clip-path="url(#clip0_35_62)">
<path d="M21.6729 8.76051C19.9365 8.9251 17.0228 10.2967 17.0228 14.0809V17.6545H13.2623V21.8686H17.0228V32.2721H21.5454V21.8686H24.9648L25.5505 17.6545H21.5468V15.451C21.5468 14.373 21.578 13.2416 22.8873 12.7567C23.6791 12.4646 25.6913 12.6233 25.6913 12.6233V9.08821C25.6913 9.08821 23.4122 8.59443 21.6759 8.75902L21.6729 8.76051Z" fill="white"/>
<path d="M20.5 41C15.0239 41 9.87559 38.8677 6.00394 34.9961C2.1323 31.1229 0 25.9761 0 20.5C0 15.0239 2.1323 9.87559 6.00394 6.00394C9.87559 2.1323 15.0239 0 20.5 0C25.9761 0 31.1244 2.1323 34.9961 6.00394C38.8677 9.87559 41 15.0239 41 20.5C41 25.9761 38.8677 31.1244 34.9961 34.9961C31.1244 38.8677 25.9761 41 20.5 41ZM20.5 1.68893C10.1277 1.68893 1.68893 10.1277 1.68893 20.5C1.68893 30.8723 10.1277 39.3111 20.5 39.3111C30.8723 39.3111 39.3111 30.8723 39.3111 20.5C39.3111 10.1277 30.8723 1.68893 20.5 1.68893Z" fill="white"/>
</g>
<defs>
<clipPath id="clip0_35_62">
<rect width="41" height="41" fill="white"/>
</clipPath>
</defs>
</svg>
