<svg width="40" height="41" viewBox="0 0 40 41" fill="none" xmlns="http://www.w3.org/2000/svg">
<path d="M14.8047 16.6934H10.5704V29.9788H14.8047V16.6934Z" fill="white"/>
<path d="M24.5198 16.3627C23.3477 16.5763 22.157 17.1076 21.2113 18.5575V16.6931H17.2618V29.9785H21.4121V22.5981C21.4064 21.9614 21.6101 21.3405 21.9918 20.832C22.4361 20.2281 23.1483 19.8806 23.8974 19.8991C25.9754 19.8991 25.917 22.346 25.917 22.7149V29.9785H30.073V21.0314C30.073 17.25 26.5978 15.9839 24.517 16.3627H24.5198Z" fill="white"/>
<path d="M13.3777 14.851C14.6371 14.4696 15.3489 13.1393 14.9675 11.8799C14.586 10.6204 13.2558 9.90863 11.9963 10.2901C10.7368 10.6715 10.0251 12.0018 10.4065 13.2612C10.788 14.5207 12.1182 15.2325 13.3777 14.851Z" fill="white"/>
<path d="M20.1898 40.3884C14.8987 40.3884 9.92379 38.3275 6.18228 34.586C2.44078 30.8445 0.379883 25.8696 0.379883 20.5785C0.379883 15.2874 2.44078 10.3125 6.18228 6.57096C9.92379 2.82945 14.8987 0.768555 20.1898 0.768555C25.4809 0.768555 30.4558 2.82945 34.1973 6.57096C37.9388 10.3125 39.9997 15.2874 39.9997 20.5785C39.9997 25.8696 37.9388 30.8445 34.1973 34.586C30.4558 38.3275 25.4809 40.3884 20.1898 40.3884ZM20.1898 2.39078C10.1616 2.39078 2.00211 10.5503 2.00211 20.5785C2.00211 30.6066 10.1616 38.7662 20.1898 38.7662C30.218 38.7662 38.3775 30.6066 38.3775 20.5785C38.3775 10.5503 30.218 2.39078 20.1898 2.39078Z" fill="white"/>
</svg>
