<svg width="41" height="41" viewBox="0 0 41 41" fill="none" xmlns="http://www.w3.org/2000/svg">
<path d="M26.4406 15.8129C27.2122 15.8129 27.8378 15.1874 27.8378 14.4157C27.8378 13.644 27.2122 13.0185 26.4406 13.0185C25.6689 13.0185 25.0433 13.644 25.0433 14.4157C25.0433 15.1874 25.6689 15.8129 26.4406 15.8129Z" fill="white"/>
<path d="M20.4999 25.98C23.5862 25.98 26.0874 23.4788 26.0874 20.3925C26.0874 17.3063 23.5862 14.8051 20.4999 14.8051C17.4137 14.8051 14.9125 17.3063 14.9125 20.3925C14.9125 23.4788 17.4137 25.98 20.4999 25.98ZM20.4999 16.7609C22.5056 16.7638 24.1301 18.3883 24.1316 20.3925C24.1316 22.3982 22.5056 24.0242 20.4999 24.0242C18.4943 24.0242 16.8683 22.3982 16.8683 20.3925C16.8683 18.3869 18.4943 16.7609 20.4999 16.7609Z" fill="white"/>
<path d="M14.9125 31.5675H26.0889C29.1752 31.5675 31.6764 29.0662 31.6764 25.98V14.8051C31.6764 11.7189 29.1752 9.21762 26.0889 9.21762H14.9125C11.8263 9.21762 9.32507 11.7189 9.32507 14.8051V25.98C9.32507 29.0662 11.8263 31.5675 14.9125 31.5675ZM11.2794 14.8051C11.2824 12.7994 12.9069 11.1749 14.9111 11.1735H26.0875C28.0932 11.1764 29.7176 12.8009 29.7191 14.8051V25.98C29.7162 27.9857 28.0917 29.6102 26.0875 29.6117H14.9111C12.9054 29.6087 11.2809 27.9842 11.2794 25.98V14.8051Z" fill="white"/>
<path d="M20.5 40.7851C15.0533 40.7851 9.93204 38.6636 6.08048 34.8121C2.22893 30.9605 0.107422 25.8393 0.107422 20.3926C0.107422 14.9458 2.22893 9.82462 6.08048 5.97306C9.93204 2.12151 15.0533 0 20.5 0C25.9467 0 31.0679 2.12151 34.9195 5.97306C38.771 9.82462 40.8925 14.9458 40.8925 20.3926C40.8925 25.8393 38.771 30.9605 34.9195 34.8121C31.0679 38.6636 25.9467 40.7851 20.5 40.7851ZM20.5 1.66994C10.1769 1.66994 1.77736 10.0695 1.77736 20.3926C1.77736 30.7157 10.1769 39.1152 20.5 39.1152C30.8231 39.1152 39.2226 30.7157 39.2226 20.3926C39.2226 10.0695 30.8231 1.66994 20.5 1.66994Z" fill="white"/>
</svg>
