<svg width="14" height="11" viewBox="0 0 14 11" fill="none" xmlns="http://www.w3.org/2000/svg">
<path d="M13.88 0.439998C13.5067 1.98667 13.1333 3.66667 12.76 5.48C12.3867 7.26667 12.0933 8.85333 11.88 10.24H8.08L7.8 9.8C8.17333 8.38667 8.68 6.84 9.32 5.16C9.96 3.45333 10.6133 1.88 11.28 0.439998H13.88ZM6.48 0.439998C6.10667 1.98667 5.73333 3.66667 5.36 5.48C4.98667 7.26667 4.69333 8.85333 4.48 10.24H0.72L0.48 9.8C0.853333 8.38667 1.34667 6.84 1.96 5.16C2.6 3.45333 3.25333 1.88 3.92 0.439998H6.48Z" fill="#A21D21"/>
</svg>
