<svg width="18" height="19" viewBox="0 0 18 19" fill="none" xmlns="http://www.w3.org/2000/svg">
<path id="Vector" d="M17.5116 15.4591L13.6863 11.5562C14.4166 10.3692 14.815 8.99602 14.815 7.55794C14.815 5.53935 14.0437 3.64043 12.643 2.21371C11.245 0.786989 9.38344 0 7.40498 0C5.42693 0 3.56457 0.788206 2.16582 2.21452C-0.72194 5.16086 -0.72194 9.9542 2.16582 12.9009C3.56418 14.3297 5.42534 15.1147 7.40379 15.1147C8.81328 15.1147 10.1591 14.7114 11.3237 13.965L15.149 17.8679C15.475 18.2005 15.9017 18.3665 16.3303 18.3665C16.7589 18.3665 17.1851 18.2005 17.5116 17.8679C18.1628 17.2034 18.1628 16.1248 17.5116 15.4591ZM3.74031 11.2949C1.7217 9.23536 1.7217 5.88132 3.74031 3.82095C4.7188 2.82261 6.01935 2.27294 7.40419 2.27294C8.78902 2.27294 10.0896 2.82261 11.0681 3.82095C12.0489 4.81929 12.5877 6.14825 12.5877 7.55915C12.5877 8.97005 12.0489 10.2966 11.0681 11.2949C10.0896 12.2933 8.78902 12.8429 7.40419 12.8429C6.01935 12.8429 4.7188 12.2937 3.74031 11.2949Z" fill="#922E26"/>
</svg>
