<svg width="18" height="18" viewBox="0 0 18 18" fill="none" xmlns="http://www.w3.org/2000/svg">
<path d="M17.5116 14.6444L13.6863 10.9472C14.4166 9.82275 14.815 8.52194 14.815 7.15964C14.815 5.24743 14.0437 3.44859 12.643 2.09705C11.245 0.745516 9.38344 0 7.40498 0C5.42693 0 3.56457 0.746669 2.16582 2.09782C-0.72194 4.88889 -0.72194 9.42962 2.16582 12.2211C3.56418 13.5745 5.42534 14.3181 7.40379 14.3181C8.81328 14.3181 10.1591 13.9361 11.3237 13.2291L15.149 16.9263C15.475 17.2414 15.9017 17.3986 16.3303 17.3986C16.7589 17.3986 17.1851 17.2414 17.5116 16.9263C18.1628 16.2968 18.1628 15.275 17.5116 14.6444ZM3.74031 10.6997C1.7217 8.74866 1.7217 5.57138 3.74031 3.61959C4.7188 2.67386 6.01935 2.15316 7.40419 2.15316C8.78902 2.15316 10.0896 2.67386 11.0681 3.61959C12.0489 4.56532 12.5877 5.82424 12.5877 7.16079C12.5877 8.49734 12.0489 9.75396 11.0681 10.6997C10.0896 11.6454 8.78902 12.1661 7.40419 12.1661C6.01935 12.1661 4.7188 11.6458 3.74031 10.6997Z" fill="white"/>
</svg>
