<svg width="40" height="39" viewBox="0 0 40 39" fill="none" xmlns="http://www.w3.org/2000/svg">
<path d="M20.0002 39C17.3005 39 14.6812 38.4844 12.2148 37.4673C9.83316 36.4849 7.69436 35.079 5.85774 33.2887C4.02112 31.4979 2.57916 29.4126 1.57204 27.0905C0.528803 24.6861 0 22.1322 0 19.5C0 16.8678 0.528803 14.3139 1.57204 11.9095C3.08438 8.4233 5.58984 5.45661 8.81719 3.33066C12.1253 1.1519 15.992 0 19.9998 0C22.6995 0 25.3188 0.515588 27.7852 1.53275C30.1668 2.51506 32.3056 3.92098 34.1423 5.71135C35.9789 7.50207 37.4208 9.58742 38.428 11.9095C39.4712 14.3139 40 16.8678 40 19.5C40 22.1322 39.4712 24.6861 38.428 27.0905C36.9156 30.5767 34.4102 33.5434 31.1828 35.6693C27.8747 37.8485 24.008 39 20.0002 39ZM20.0002 1.50904C12.5671 1.50904 5.89348 5.82201 2.99778 12.4973C2.03562 14.7149 1.54809 17.0708 1.54809 19.5C1.54809 29.4201 9.82579 37.491 20.0002 37.491C27.4333 37.491 34.1069 33.178 37.0026 26.5027C37.9648 24.2851 38.4523 21.9292 38.4523 19.5C38.4523 9.57987 30.1746 1.50904 20.0002 1.50904Z" fill="white"/>
<path fill-rule="evenodd" clip-rule="evenodd" d="M24.1371 15.0924L24.1368 15.6175H24.1361V22.6752C24.1361 24.3577 23.5002 25.9581 22.3588 27.1479C21.2174 28.3375 19.6819 29 18.068 29C16.4542 29 14.9186 28.3375 13.7774 27.1479C12.6359 25.9581 12 24.3577 12 22.6751C12 20.9924 12.6359 19.3925 13.7774 18.2029C14.9187 17.0131 16.4539 16.3503 18.068 16.3503H19.1941V19.6753H18.068C17.3017 19.6753 16.5747 19.9891 16.0327 20.5541C15.4908 21.1189 15.19 21.8764 15.19 22.6751C15.19 23.4738 15.4908 24.2316 16.0327 24.7965C16.5747 25.361 17.3018 25.6752 18.068 25.6752C18.8343 25.6752 19.5614 25.361 20.1034 24.7965C20.645 24.2316 20.9461 23.4742 20.9461 22.682V10H24.1228L24.2819 10.307C24.7765 11.2624 25.4436 12.1682 26.271 12.8365C26.9107 13.3535 27.6347 13.7182 28.4346 13.8643L29 13.9677L28.3932 17.1731L27.8498 17.0719C27.2026 16.9514 26.5672 16.7467 25.9723 16.4545C25.2894 16.1186 24.656 15.6656 24.1371 15.0923V15.0924Z" fill="white"/>
</svg>
