<svg width="40" height="39" viewBox="0 0 40 39" fill="none" xmlns="http://www.w3.org/2000/svg">
<path d="M20.0002 39C17.3005 39 14.6812 38.4844 12.2148 37.4673C9.83316 36.4849 7.69436 35.079 5.85774 33.2887C4.02112 31.4979 2.57916 29.4126 1.57204 27.0905C0.528803 24.6861 0 22.1322 0 19.5C0 16.8678 0.528803 14.3139 1.57204 11.9095C3.08438 8.4233 5.58984 5.45661 8.81719 3.33066C12.1253 1.1519 15.992 0 19.9998 0C22.6995 0 25.3188 0.515588 27.7852 1.53275C30.1668 2.51506 32.3056 3.92098 34.1423 5.71135C35.9789 7.50207 37.4208 9.58742 38.428 11.9095C39.4712 14.3139 40 16.8678 40 19.5C40 22.1322 39.4712 24.6861 38.428 27.0905C36.9156 30.5767 34.4102 33.5434 31.1828 35.6693C27.8747 37.8485 24.008 39 20.0002 39ZM20.0002 1.50904C12.5671 1.50904 5.89348 5.82201 2.99778 12.4973C2.03562 14.7149 1.54809 17.0708 1.54809 19.5C1.54809 29.4201 9.82579 37.491 20.0002 37.491C27.4333 37.491 34.1069 33.178 37.0026 26.5027C37.9648 24.2851 38.4523 21.9292 38.4523 19.5C38.4523 9.57987 30.1746 1.50904 20.0002 1.50904Z" fill="white"/>
<path d="M22.6275 18.1765L21.7666 16.9607L16.1298 9H10L18.3375 20.8822L19.197 22.107L24.7351 30H31L22.6275 18.1761V18.1765ZM20.1136 21.0571L19.2549 19.833L12.5868 10.3298H15.4131L20.8503 18.0083L21.7117 19.2253L28.3997 28.6702H25.4553L20.1132 21.0567L20.1136 21.0571Z" fill="white"/>
<path d="M29 9L21.6342 18.8714L20.7922 20L20 18.6908L20.8423 17.5638L27.2452 9H29Z" fill="white"/>
</svg>
