<svg width="40" height="40" viewBox="0 0 40 40" fill="none" xmlns="http://www.w3.org/2000/svg">
<path d="M14.1101 10.5753V29.3754L30.724 20.1348L14.1101 10.5753Z" fill="white"/>
<path d="M20.1898 39.7849C14.8987 39.7849 9.92379 37.724 6.18228 33.9825C2.44078 30.241 0.379883 25.2661 0.379883 19.975C0.379883 14.6839 2.44078 9.70895 6.18228 5.96744C9.92379 2.22593 14.8987 0.165039 20.1898 0.165039C25.4809 0.165039 30.4558 2.22593 34.1973 5.96744C37.9388 9.70895 39.9997 14.6839 39.9997 19.975C39.9997 25.2661 37.9388 30.241 34.1973 33.9825C30.4558 37.724 25.4809 39.7849 20.1898 39.7849ZM20.1898 1.78726C10.1616 1.78726 2.00211 9.9468 2.00211 19.975C2.00211 30.0031 10.1616 38.1627 20.1898 38.1627C30.218 38.1627 38.3775 30.0031 38.3775 19.975C38.3775 9.9468 30.218 1.78726 20.1898 1.78726Z" fill="white"/>
</svg>
