<svg width="40" height="41" viewBox="0 0 40 41" fill="none" xmlns="http://www.w3.org/2000/svg"><path d="M14.805 16.693H10.57V29.98h4.235V16.693zm9.715-.33c-1.172.213-2.363.745-3.309 2.195v-1.865h-3.95v13.285h4.151v-7.38a2.899 2.899 0 01.58-1.766 2.295 2.295 0 011.905-.933c2.078 0 2.02 2.447 2.02 2.816v7.264h4.156V21.03c0-3.781-3.475-5.047-5.556-4.668h.003zm-11.142-1.512a2.383 2.383 0 10-1.382-4.561 2.383 2.383 0 001.382 4.561z" fill="#fff"/><path d="M20.19 40.388a19.68 19.68 0 01-14.008-5.802A19.68 19.68 0 01.38 20.578 19.68 19.68 0 016.182 6.571 19.68 19.68 0 0120.19.769 19.68 19.68 0 0134.197 6.57 19.68 19.68 0 0140 20.579a19.68 19.68 0 01-5.803 14.007 19.68 19.68 0 01-14.007 5.802zm0-37.997c-10.028 0-18.188 8.16-18.188 18.188 0 10.028 8.16 18.187 18.188 18.187 10.028 0 18.187-8.16 18.187-18.188 0-10.028-8.159-18.187-18.187-18.187z" fill="#fff"/></svg>