<svg width="18" height="18" viewBox="0 0 18 18" fill="none" xmlns="http://www.w3.org/2000/svg"><path d="M17.512 14.644l-3.826-3.697a6.925 6.925 0 001.129-3.787c0-1.913-.771-3.711-2.172-5.063A7.492 7.492 0 007.405 0a7.5 7.5 0 00-5.24 2.098 6.998 6.998 0 000 10.123c1.4 1.354 3.26 2.097 5.239 2.097 1.41 0 2.755-.382 3.92-1.089l3.825 3.697c.326.315.753.473 1.181.473.429 0 .855-.158 1.182-.473a1.577 1.577 0 000-2.282zM3.74 10.7a4.896 4.896 0 010-7.08 5.238 5.238 0 013.664-1.467c1.385 0 2.686.52 3.664 1.467a4.882 4.882 0 010 7.08 5.238 5.238 0 01-3.664 1.466A5.236 5.236 0 013.74 10.7z" fill="#fff"/></svg>