<svg width="40" height="39" viewBox="0 0 40 39" fill="none" xmlns="http://www.w3.org/2000/svg"><path d="M20 39c-2.7 0-5.319-.516-7.785-1.533a19.979 19.979 0 01-6.357-4.178 19.412 19.412 0 01-4.286-6.199A18.958 18.958 0 010 19.5c0-2.632.529-5.186 1.572-7.59C3.084 8.422 5.59 5.456 8.817 3.33A20.265 20.265 0 0120 0c2.7 0 5.319.516 7.785 1.533a19.978 19.978 0 016.357 4.178 19.412 19.412 0 014.286 6.198A18.959 18.959 0 0140 19.5a18.96 18.96 0 01-1.572 7.59c-1.512 3.487-4.018 6.453-7.245 8.58A20.261 20.261 0 0120 39zm0-37.491c-7.433 0-14.107 4.313-17.002 10.988a17.49 17.49 0 00-1.45 7.003c0 9.92 8.278 17.991 18.452 17.991 7.433 0 14.107-4.313 17.003-10.988a17.489 17.489 0 001.45-7.003c0-9.92-8.278-17.991-18.453-17.991z" fill="#fff"/><path fill-rule="evenodd" clip-rule="evenodd" d="M24.137 15.092v7.583a6.446 6.446 0 01-1.778 4.473C21.217 28.338 19.682 29 18.068 29a5.928 5.928 0 01-4.29-1.852A6.446 6.446 0 0112 22.675c0-1.683.636-3.283 1.777-4.472 1.142-1.19 2.677-1.853 4.291-1.853h1.126v3.325h-1.126a2.81 2.81 0 00-2.035.88 3.053 3.053 0 00-.843 2.12c0 .799.3 1.557.843 2.122a2.813 2.813 0 002.035.878c.766 0 1.493-.314 2.035-.878a3.051 3.051 0 00.843-2.115V10h3.177l.159.307c.494.955 1.162 1.861 1.989 2.53.64.517 1.364.881 2.164 1.027l.565.104-.607 3.205-.543-.101a7.29 7.29 0 01-1.878-.617 6.092 6.092 0 01-1.835-1.363z" fill="#fff"/></svg>