<svg width="40" height="39" viewBox="0 0 40 39" fill="none" xmlns="http://www.w3.org/2000/svg"><path d="M20 39c-2.7 0-5.319-.516-7.785-1.533a19.979 19.979 0 01-6.357-4.178 19.412 19.412 0 01-4.286-6.199A18.958 18.958 0 010 19.5c0-2.632.529-5.186 1.572-7.59C3.084 8.422 5.59 5.456 8.817 3.33A20.265 20.265 0 0120 0c2.7 0 5.319.516 7.785 1.533a19.978 19.978 0 016.357 4.178 19.412 19.412 0 014.286 6.198A18.959 18.959 0 0140 19.5a18.96 18.96 0 01-1.572 7.59c-1.512 3.487-4.018 6.453-7.245 8.58A20.261 20.261 0 0120 39zm0-37.491c-7.433 0-14.107 4.313-17.002 10.988a17.49 17.49 0 00-1.45 7.003c0 9.92 8.278 17.991 18.452 17.991 7.433 0 14.107-4.313 17.003-10.988a17.489 17.489 0 001.45-7.003c0-9.92-8.278-17.991-18.453-17.991z" fill="#fff"/><path d="M22.628 18.177l-.861-1.216L16.13 9H10l8.337 11.882.86 1.225L24.735 30H31l-8.372-11.824zm-2.514 2.88l-.86-1.224-6.667-9.503h2.826l5.437 7.678.862 1.217L28.4 28.67h-2.945l-5.342-7.613z" fill="#fff"/><path d="M19.207 20L20 21.204l-.846 1.033L12.794 30H11l7.36-8.968.847-1.032zM29 9l-7.366 9.871L20.792 20 20 18.69l.842-1.126L27.245 9H29z" fill="#fff"/></svg>