<svg width="40" height="40" viewBox="0 0 40 40" fill="none" xmlns="http://www.w3.org/2000/svg"><path d="M14.11 10.575v18.8l16.614-9.24-16.614-9.56z" fill="#fff"/><path d="M20.19 39.785a19.68 19.68 0 01-14.008-5.802A19.68 19.68 0 01.38 19.975 19.68 19.68 0 016.182 5.967 19.68 19.68 0 0120.19.165a19.68 19.68 0 0114.007 5.802A19.68 19.68 0 0140 19.975a19.68 19.68 0 01-5.803 14.008 19.68 19.68 0 01-14.007 5.802zm0-37.998c-10.028 0-18.188 8.16-18.188 18.188 0 10.028 8.16 18.188 18.188 18.188 10.028 0 18.187-8.16 18.187-18.188 0-10.028-8.159-18.188-18.187-18.188z" fill="#fff"/></svg>