<svg width="41" height="41" viewBox="0 0 41 41" fill="none" xmlns="http://www.w3.org/2000/svg"><g clip-path="url(#clip0_35_62)" fill="#fff"><path d="M21.673 8.76c-1.736.165-4.65 1.537-4.65 5.32v3.574h-3.76v4.215h3.76v10.403h4.522V21.87h3.42l.585-4.215h-4.003v-2.203c0-1.078.031-2.21 1.34-2.694.792-.292 2.804-.134 2.804-.134V9.088s-2.279-.494-4.015-.329l-.003.002z"/><path d="M20.5 41a20.367 20.367 0 01-14.496-6.004A20.37 20.37 0 010 20.5 20.366 20.366 0 016.004 6.004 20.366 20.366 0 0120.5 0a20.367 20.367 0 0114.496 6.004A20.367 20.367 0 0141 20.5a20.367 20.367 0 01-6.004 14.496A20.367 20.367 0 0120.5 41zm0-39.311c-10.372 0-18.811 8.439-18.811 18.811S10.128 39.311 20.5 39.311 39.311 30.872 39.311 20.5 30.872 1.689 20.5 1.689z"/></g><defs><clipPath id="clip0_35_62"><path fill="#fff" d="M0 0h41v41H0z"/></clipPath></defs></svg>