<svg width="41" height="41" viewBox="0 0 41 41" fill="none" xmlns="http://www.w3.org/2000/svg"><path d="M26.44 15.813a1.397 1.397 0 100-2.795 1.397 1.397 0 000 2.795zM20.5 25.98a5.587 5.587 0 100-11.175 5.587 5.587 0 100 11.175zm0-9.22a3.632 3.632 0 110 7.263 3.632 3.632 0 010-7.262z" fill="#fff"/><path d="M14.912 31.567H26.09a5.587 5.587 0 005.587-5.587V14.805a5.587 5.587 0 00-5.587-5.587H14.913a5.587 5.587 0 00-5.588 5.587V25.98a5.587 5.587 0 005.588 5.587zM11.28 14.805a3.635 3.635 0 013.632-3.631h11.176a3.635 3.635 0 013.632 3.631V25.98a3.635 3.635 0 01-3.632 3.632H14.911a3.636 3.636 0 01-3.632-3.632V14.805z" fill="#fff"/><path d="M20.5 40.785a20.26 20.26 0 01-14.42-5.973 20.26 20.26 0 01-5.973-14.42A20.26 20.26 0 016.08 5.974 20.26 20.26 0 0120.5 0a20.26 20.26 0 0114.42 5.973 20.26 20.26 0 015.972 14.42 20.26 20.26 0 01-5.973 14.42A20.26 20.26 0 0120.5 40.784zm0-39.115c-10.323 0-18.723 8.4-18.723 18.723 0 10.323 8.4 18.722 18.723 18.722 10.323 0 18.723-8.4 18.723-18.722 0-10.324-8.4-18.723-18.723-18.723z" fill="#fff"/></svg>