<svg width="22" height="22" viewBox="0 0 22 22" fill="none" xmlns="http://www.w3.org/2000/svg"><path d="M17.696 14.192a46.745 46.745 0 013.564 2.332c.685.502.942 1.422.567 2.186-.764 1.556-2.086 2.682-4.104 3.124-1.637.361-3.346.116-4.88-.567-2.5-1.112-4.953-2.782-7.142-4.97-2.188-2.188-3.856-4.638-4.97-7.142-.68-1.53-.926-3.242-.565-4.879C.611 2.261 1.734.94 3.29.173 4.055-.202 4.974.055 5.477.74a46.352 46.352 0 012.332 3.564 1.76 1.76 0 01-.236 2.123c-.487.5-.999.98-1.531 1.436-.642.549-.737 1.498-.253 2.189a25.012 25.012 0 002.814 3.346c1.06 1.06 2.184 2 3.347 2.813.69.484 1.642.39 2.188-.252a22.6 22.6 0 011.436-1.53 1.761 1.761 0 012.124-.237h-.002z" fill="#fff"/></svg>