<svg width="18" height="19" viewBox="0 0 18 19" fill="none" xmlns="http://www.w3.org/2000/svg"><path id="Vector" d="M17.512 15.46l-3.826-3.904a7.606 7.606 0 001.129-3.998 7.58 7.58 0 00-2.172-5.344A7.288 7.288 0 007.405 0c-1.978 0-3.84.788-5.24 2.215-2.887 2.946-2.887 7.74 0 10.686a7.28 7.28 0 005.239 2.214c1.41 0 2.755-.404 3.92-1.15l3.825 3.903a1.647 1.647 0 002.363 0 1.73 1.73 0 000-2.409zM3.74 11.294c-2.018-2.06-2.018-5.414 0-7.474a5.095 5.095 0 013.664-1.548c1.385 0 2.686.55 3.664 1.548a5.301 5.301 0 011.52 3.738c0 1.411-.54 2.738-1.52 3.736a5.095 5.095 0 01-3.664 1.548 5.093 5.093 0 01-3.664-1.548z" fill="#922E26"/></svg>